<svg width="401" height="304" viewBox="0 0 401 304" fill="none" xmlns="http://www.w3.org/2000/svg">
<g filter="url(#filter0_g_182_122)">
<path d="M137.861 280.482H223.784C205.03 246.65 159.218 185.328 125.996 210.697C92.7743 236.066 120.064 267.791 137.861 280.482Z" fill="#D92759"/>
<path d="M136.77 65.3267C173.804 53.4068 214.586 66.391 230.348 74.3731C204.133 94.4171 146.426 134.079 125.321 132.376C98.9401 130.248 90.4782 80.2267 136.77 65.3267Z" fill="#D92759"/>
<path fill-rule="evenodd" clip-rule="evenodd" d="M241.169 74.3346C177.971 74.3346 124.876 107.226 109.868 151.725C104.534 152.009 96.7423 150.856 92.0472 144.846C84.6724 135.406 62.9407 114.382 47.022 114.381C36.154 114.381 25.2858 113.523 24.8976 134.119C24.6388 142.415 26.0622 160.809 33.8251 168.017C41.5873 175.226 37.0596 186.053 33.8251 190.566C26.5123 201.201 15.7273 225.554 31.0915 237.881C46.456 250.209 66.4053 240.05 74.4592 233.429L97.0722 215.623C100.292 212.36 107.558 207.966 113.793 212.728C132.752 252.259 182.626 280.483 241.169 280.483C316.028 280.483 376.713 234.336 376.714 177.409C376.714 120.483 316.028 74.3346 241.169 74.3346ZM315.389 140.667C328.112 140.667 338.426 151.693 338.426 165.294C338.426 178.896 328.112 189.922 315.389 189.922C302.666 189.922 292.353 178.896 292.353 165.294C292.353 151.693 302.667 140.667 315.389 140.667Z" fill="black"/>
<path d="M233.565 190.193L281.173 215.623C278.22 223.507 285.742 251.951 290.802 266.77C281.233 274.78 244.911 272.727 240.195 269.093C200.286 238.343 219.146 203.68 233.565 190.193Z" fill="#D92759"/>
<path d="M327.451 49.2984L287.7 83.8047C279.888 79.2543 247.074 78.4841 229.688 79.0652C223.424 68.7875 234.906 38.0432 240.055 34.9089C283.623 8.38583 316.472 33.4506 327.451 49.2984Z" fill="#D92759"/>
<path d="M341.269 162.834C341.269 179.514 328.347 193.036 312.406 193.036C296.466 193.036 283.544 179.514 283.544 162.834C283.544 146.155 296.466 132.633 312.406 132.633C328.347 132.633 341.269 146.155 341.269 162.834Z" fill="white"/>
<path d="M341.269 162.834C341.269 179.514 328.347 193.036 312.406 193.036C296.466 193.036 283.544 179.514 283.544 162.834C283.544 146.155 296.466 132.633 312.406 132.633C328.347 132.633 341.269 146.155 341.269 162.834Z" fill="white"/>
<path d="M341.269 162.834C341.269 179.514 328.347 193.036 312.406 193.036C296.466 193.036 283.544 179.514 283.544 162.834C283.544 146.155 296.466 132.633 312.406 132.633C328.347 132.633 341.269 146.155 341.269 162.834Z" fill="white"/>
<path d="M341.269 162.834C341.269 179.514 328.347 193.036 312.406 193.036C296.466 193.036 283.544 179.514 283.544 162.834C283.544 146.155 296.466 132.633 312.406 132.633C328.347 132.633 341.269 146.155 341.269 162.834Z" fill="white"/>
<path d="M329.116 162.384C329.116 170.848 321.635 177.71 312.406 177.71C303.178 177.71 295.697 170.848 295.697 162.384C295.697 153.919 303.178 147.058 312.406 147.058C321.635 147.058 329.116 153.919 329.116 162.384Z" fill="black"/>
<path d="M236.243 26.1168C259.896 12.104 281.473 11.4581 298.936 17.1881C316.234 22.8637 328.786 34.5425 335.26 43.8883L340.11 50.8893L333.678 56.4723L309.051 77.8502C321.442 82.9347 332.794 89.3804 342.764 96.9625C369.098 116.988 386.214 145.342 386.214 177.41L386.201 178.91C385.676 210.361 368.686 238.142 342.763 257.855C316.437 277.875 280.487 289.983 241.17 289.983C240.75 289.983 240.329 289.981 239.91 289.978L239.912 289.982H134.821L132.345 288.216C122.675 281.321 109.763 268.877 103.933 253.762C100.939 246 99.6798 237.153 102.166 228.023C102.752 225.87 103.533 223.759 104.506 221.695C104.235 221.913 104.007 222.12 103.834 222.296L103.417 222.719L102.949 223.087L80.3659 240.87C75.4354 244.892 67.1955 249.815 57.653 252.017C47.8248 254.285 35.7444 253.795 25.1462 245.292V245.291C13.5648 235.998 12.6115 222.47 14.6189 211.828C16.6227 201.205 21.8358 191.235 25.9968 185.183L26.0495 185.107L26.1032 185.032C27.0414 183.723 28.2234 181.321 28.5349 179.025C28.8029 177.049 28.4039 175.948 27.3611 174.979L26.7878 174.428C20.9758 168.648 18.3543 159.991 17.0339 153.321C15.5779 145.965 15.2542 138.562 15.4021 133.823C15.643 122.152 18.9691 113.056 27.3112 108.282C31.0225 106.158 34.9206 105.415 38.1404 105.111C41.2673 104.815 44.6062 104.881 47.0222 104.881C52.9754 104.882 58.7869 106.808 63.864 109.257C69.0251 111.748 74.0316 115.074 78.5407 118.551C87.5083 125.468 95.3525 133.645 99.5339 138.998C100.434 140.15 101.746 141.012 103.561 141.581C103.569 141.583 103.577 141.585 103.585 141.588C104.622 139.17 105.76 136.794 106.993 134.462C98.4204 126.952 94.0036 114.888 94.2966 103.399C94.7802 84.4437 107.152 64.8803 133.859 56.2838C154.25 49.7207 175.323 50.102 193.073 53.0123C202.92 54.6269 211.943 57.0526 219.521 59.65C220.048 56.9253 220.721 54.2218 221.471 51.6481C222.97 46.5096 224.88 41.538 226.847 37.5133C227.826 35.5107 228.899 33.5788 230.035 31.9186C230.978 30.5402 232.66 28.2889 235.115 26.7946L236.243 26.1168Z" stroke="white" stroke-width="19"/>
</g>
<defs>
<filter id="filter0_g_182_122" x="1.81198e-05" y="-7.34329e-05" width="400.014" height="303.783" filterUnits="userSpaceOnUse" color-interpolation-filters="sRGB">
<feFlood flood-opacity="0" result="BackgroundImageFix"/>
<feBlend mode="normal" in="SourceGraphic" in2="BackgroundImageFix" result="shape"/>
<feTurbulence type="fractalNoise" baseFrequency="0.029069766402244568 0.029069766402244568" numOctaves="3" seed="2651" />
<feDisplacementMap in="shape" scale="8.6000003814697266" xChannelSelector="R" yChannelSelector="G" result="displacedImage" width="100%" height="100%" />
<feMerge result="effect1_texture_182_122">
<feMergeNode in="displacedImage"/>
</feMerge>
</filter>
</defs>
</svg>
