<svg width="63" height="73" viewBox="0 0 63 73" fill="none" xmlns="http://www.w3.org/2000/svg">
<g filter="url(#filter0_d_279_17)">
<path d="M7.40002 17.3999C7.40002 9.66792 13.668 3.3999 21.4 3.3999H41.4C49.132 3.3999 55.4 9.66792 55.4 17.3999V47.3999C55.4 55.1319 49.132 61.3999 41.4 61.3999H21.4C13.668 61.3999 7.40002 55.1319 7.40002 47.3999V17.3999Z" fill="#CCC20C"/>
<path d="M15.4 12.3999H47.4V16.3999H15.4V12.3999Z" fill="black"/>
<path d="M15.4 12.3999H47.4V16.3999H15.4V12.3999Z" fill="black"/>
<path d="M15.4 49.3999H47.4V53.3999H15.4V49.3999Z" fill="black"/>
<path d="M15.4 49.3999H47.4V53.3999H15.4V49.3999Z" fill="black"/>
<path d="M15.4 32.3999H47.4V36.3999H15.4V32.3999Z" fill="black"/>
<path d="M15.4 32.3999H47.4V36.3999H15.4V32.3999Z" fill="black"/>
</g>
<defs>
<filter id="filter0_d_279_17" x="2.43187e-05" y="-9.77516e-05" width="62.8" height="72.8" filterUnits="userSpaceOnUse" color-interpolation-filters="sRGB">
<feFlood flood-opacity="0" result="BackgroundImageFix"/>
<feColorMatrix in="SourceAlpha" type="matrix" values="0 0 0 0 0 0 0 0 0 0 0 0 0 0 0 0 0 0 127 0" result="hardAlpha"/>
<feOffset dy="4"/>
<feGaussianBlur stdDeviation="3.7"/>
<feComposite in2="hardAlpha" operator="out"/>
<feColorMatrix type="matrix" values="0 0 0 0 0 0 0 0 0 0 0 0 0 0 0 0 0 0 1 0"/>
<feBlend mode="normal" in2="BackgroundImageFix" result="effect1_dropShadow_279_17"/>
<feBlend mode="normal" in="SourceGraphic" in2="effect1_dropShadow_279_17" result="shape"/>
</filter>
</defs>
</svg>
