<svg xmlns="http://www.w3.org/2000/svg" width="640" height="360" viewBox="0 0 640 360" role="img" aria-label="ESP32 board illustration">
  <defs>
    <linearGradient id="bg" x1="0" y1="0" x2="1" y2="1">
      <stop offset="0%" stop-color="#0a3753"/>
      <stop offset="100%" stop-color="#1277b0"/>
    </linearGradient>
  </defs>
  <rect width="640" height="360" fill="url(#bg)"/>
  <rect x="180" y="70" width="280" height="220" rx="14" fill="#1f2937" stroke="#8ab6cf" stroke-width="4"/>
  <rect x="250" y="105" width="140" height="90" rx="8" fill="#111827" stroke="#6ee7ff"/>
  <g fill="#9ca3af">
    <rect x="170" y="88" width="10" height="12"/><rect x="170" y="108" width="10" height="12"/><rect x="170" y="128" width="10" height="12"/>
    <rect x="170" y="148" width="10" height="12"/><rect x="170" y="168" width="10" height="12"/><rect x="170" y="188" width="10" height="12"/>
    <rect x="170" y="208" width="10" height="12"/><rect x="170" y="228" width="10" height="12"/><rect x="170" y="248" width="10" height="12"/>
    <rect x="460" y="88" width="10" height="12"/><rect x="460" y="108" width="10" height="12"/><rect x="460" y="128" width="10" height="12"/>
    <rect x="460" y="148" width="10" height="12"/><rect x="460" y="168" width="10" height="12"/><rect x="460" y="188" width="10" height="12"/>
    <rect x="460" y="208" width="10" height="12"/><rect x="460" y="228" width="10" height="12"/><rect x="460" y="248" width="10" height="12"/>
  </g>
  <text x="320" y="330" text-anchor="middle" fill="#e5f6ff" font-size="32" font-family="Arial, sans-serif">ESP32 Dev Board</text>
</svg>
