<svg width="363" height="266" viewBox="0 0 363 266" fill="none" xmlns="http://www.w3.org/2000/svg">
<g filter="url(#filter0_g_182_122)">
<path d="M118.885 261.481H204.808C186.054 227.649 140.242 166.328 107.02 191.697C73.7982 217.066 101.088 248.79 118.885 261.481Z" fill="#D92759"/>
<path d="M117.794 46.3264C154.827 34.4064 195.61 47.3907 211.372 55.3728C185.157 75.4167 127.45 115.079 106.345 113.376C79.964 111.248 71.5021 61.2263 117.794 46.3264Z" fill="#D92759"/>
<path fill-rule="evenodd" clip-rule="evenodd" d="M222.193 55.3342C158.995 55.3342 105.9 88.2254 90.8915 132.725C85.5576 133.009 77.7662 131.855 73.0711 125.846C65.6963 116.406 43.9645 95.3812 28.0459 95.381C17.1779 95.381 6.30967 94.523 5.92148 115.119C5.66271 123.414 7.08606 141.808 14.849 149.017C22.6112 156.225 18.0835 167.053 14.849 171.566C7.53622 182.201 -3.24878 206.553 12.1154 218.881C27.4798 231.209 47.4292 221.049 55.4831 214.429L78.0961 196.623C81.3164 193.359 88.5814 188.966 94.8167 193.727C113.776 233.258 163.65 261.483 222.193 261.483C297.052 261.483 357.737 215.335 357.737 158.409C357.737 101.483 297.052 55.3343 222.193 55.3342ZM296.413 121.666C309.136 121.666 319.45 132.692 319.45 146.294C319.45 159.895 309.136 170.922 296.413 170.922C283.69 170.922 273.377 159.895 273.377 146.294C273.377 132.692 283.69 121.667 296.413 121.666Z" fill="black"/>
<path d="M214.589 171.192L262.197 196.623C259.244 204.506 266.766 232.951 271.826 247.77C262.257 255.78 225.935 253.726 221.219 250.093C181.31 219.343 200.17 184.68 214.589 171.192Z" fill="#D92759"/>
<path d="M308.475 30.298L268.724 64.8043C260.912 60.2539 228.098 59.4837 210.712 60.0648C204.448 49.7872 215.93 19.0428 221.079 15.9085C264.647 -10.6145 297.496 14.4502 308.475 30.298Z" fill="#D92759"/>
<path d="M322.293 143.834C322.293 160.514 309.37 174.035 293.43 174.035C277.49 174.035 264.568 160.514 264.568 143.834C264.568 127.154 277.49 113.633 293.43 113.633C309.37 113.633 322.293 127.154 322.293 143.834Z" fill="white"/>
<path d="M322.293 143.834C322.293 160.514 309.37 174.035 293.43 174.035C277.49 174.035 264.568 160.514 264.568 143.834C264.568 127.154 277.49 113.633 293.43 113.633C309.37 113.633 322.293 127.154 322.293 143.834Z" fill="white"/>
<path d="M322.293 143.834C322.293 160.514 309.37 174.035 293.43 174.035C277.49 174.035 264.568 160.514 264.568 143.834C264.568 127.154 277.49 113.633 293.43 113.633C309.37 113.633 322.293 127.154 322.293 143.834Z" fill="white"/>
<path d="M322.293 143.834C322.293 160.514 309.37 174.035 293.43 174.035C277.49 174.035 264.568 160.514 264.568 143.834C264.568 127.154 277.49 113.633 293.43 113.633C309.37 113.633 322.293 127.154 322.293 143.834Z" fill="white"/>
<path d="M310.14 143.383C310.14 151.847 302.659 158.709 293.43 158.709C284.202 158.709 276.72 151.847 276.72 143.383C276.72 134.919 284.202 128.057 293.43 128.057C302.659 128.057 310.14 134.919 310.14 143.383Z" fill="black"/>
</g>
<defs>
<filter id="filter0_g_182_122" x="-1.23978e-05" y="4.86374e-05" width="362.038" height="265.783" filterUnits="userSpaceOnUse" color-interpolation-filters="sRGB">
<feFlood flood-opacity="0" result="BackgroundImageFix"/>
<feBlend mode="normal" in="SourceGraphic" in2="BackgroundImageFix" result="shape"/>
<feTurbulence type="fractalNoise" baseFrequency="0.029069766402244568 0.029069766402244568" numOctaves="3" seed="2651" />
<feDisplacementMap in="shape" scale="8.6000003814697266" xChannelSelector="R" yChannelSelector="G" result="displacedImage" width="100%" height="100%" />
<feMerge result="effect1_texture_182_122">
<feMergeNode in="displacedImage"/>
</feMerge>
</filter>
</defs>
</svg>
